<svg xmlns="http://www.w3.org/2000/svg" viewBox="0 0 40.36 40.36"><defs><style>.cls-1{fill:#fff;}</style></defs><g id="Layer_2" data-name="Layer 2"><g id="Layer_1-2" data-name="Layer 1"><g id="close"><path class="cls-1" d="M27.46,16.43,38.11,5.79l1.52-1.52a2.53,2.53,0,0,0,0-3.53,2.55,2.55,0,0,0-3.54,0L25.44,11.38,23.93,12.9a2.5,2.5,0,0,0,3.53,3.53Z"/><path class="cls-1" d="M4.27,39.63,14.53,29.37,16,27.91a2.5,2.5,0,0,0-3.53-3.54L2.2,34.63.74,36.09a2.53,2.53,0,0,0,0,3.54,2.55,2.55,0,0,0,3.53,0Z"/><path class="cls-1" d="M.74,4.27l12,12,19,19,4.35,4.36c2.28,2.27,5.82-1.26,3.54-3.54l-12-12-19-19L4.27.74C2-1.54-1.54,2,.74,4.27Z"/></g></g></g></svg>