<svg xmlns="http://www.w3.org/2000/svg" viewBox="0 0 62.79 34.07"><defs><style>.cls-1{fill:#fff;}</style></defs><g id="Layer_2" data-name="Layer 2"><g id="Layer_1-2" data-name="Layer 1"><g id="toggle"><path class="cls-1" d="M2.41,5h50c3.22,0,3.23-5,0-5h-50C-.8,0-.81,5,2.41,5Z"/><path class="cls-1" d="M12.37,19.54h40c3.22,0,3.23-5,0-5h-40c-3.21,0-3.22,5,0,5Z"/><path class="cls-1" d="M25.39,34.07h27c3.22,0,3.23-5,0-5h-27c-3.22,0-3.23,5,0,5Z"/><path class="cls-1" d="M60.37,5c3.22,0,3.23-5,0-5s-3.22,5,0,5Z"/><path class="cls-1" d="M60.37,19.54c3.22,0,3.23-5,0-5s-3.22,5,0,5Z"/><path class="cls-1" d="M60.37,34.07c3.22,0,3.23-5,0-5s-3.22,5,0,5Z"/></g></g></g></svg>