<svg xmlns="http://www.w3.org/2000/svg" viewBox="0 0 100.63 152.85"><defs><style>.cls-1{fill:#fff;}</style></defs><g id="Layer_2" data-name="Layer 2"><g id="Layer_1-2" data-name="Layer 1"><path class="cls-1" d="M100.63,108.52a40.41,40.41,0,0,1-7.29,22.82A48.86,48.86,0,0,1,74.9,147.1a56.17,56.17,0,0,1-47.82.8A49.16,49.16,0,0,1,8,132.62a40.13,40.13,0,0,1-8-22.83,27.32,27.32,0,0,1,.46-6.12c.23-1,.4-2,.72-3l.42-1.46.5-1.45a78.7,78.7,0,0,1,5-11c3.88-7.1,8.06-14,12-21A212.49,212.49,0,0,0,30,44.24c1.54-3.69,3-7.41,4.17-11.22A109.51,109.51,0,0,0,37.2,21.48c.45-1.93.73-3.9,1.07-5.86.15-1,.26-2,.38-3s.26-2,.32-3l.24-3,.16-1.62a11.24,11.24,0,0,1,.38-1.71,6,6,0,0,1,.85-1.8,3.45,3.45,0,0,1,.84-.87q.27-.2.54-.36l.63-.23A3.88,3.88,0,0,1,43.86,0,7.51,7.51,0,0,1,45,.18c.32.1.61.23.92.35s.53.28.8.42a23,23,0,0,1,4.94,4.21c1.42,1.53,2.72,3.12,4,4.74,2.49,3.25,4.81,6.59,7,10A327.06,327.06,0,0,1,85.43,62.69c3.28,7.39,6.39,14.85,9.14,22.44,1.35,3.81,2.7,7.61,3.8,11.5.56,1.94,1.09,3.89,1.5,5.87A31.29,31.29,0,0,1,100.63,108.52Zm-.3,0a31.44,31.44,0,0,0-.81-5.94c-.44-2-1-3.91-1.57-5.82Q96.12,91,93.8,85.43C90.71,78,87.29,70.71,83.65,63.54S76.19,49.29,72.28,42.28s-8-14-12.37-20.63c-2.19-3.35-4.44-6.65-6.85-9.8-1.22-1.56-2.47-3.09-3.79-4.52A21.11,21.11,0,0,0,45.1,3.65a2.52,2.52,0,0,0-1.65-.53h-.09a.46.46,0,0,1-.07.07c-.07,0-.13.14-.21.21a3,3,0,0,0-.42.91,8.53,8.53,0,0,0-.29,1.23l-.15,1.39L41.93,10c-.08,1-.21,2-.36,3s-.27,2-.43,3c-.38,2-.7,4-1.18,6a117.55,117.55,0,0,1-7.81,23.11c-1.64,3.72-3.49,7.33-5.44,10.89s-4,7-6.09,10.49-4.23,6.87-6.36,10.29S10,83.71,8.1,87.23A77.17,77.17,0,0,0,3,98.09a29.41,29.41,0,0,0-2,11.66,36,36,0,0,0,2.41,11.61A40.51,40.51,0,0,0,6,126.71a41,41,0,0,0,3.35,4.89,47.53,47.53,0,0,0,18.75,14,57.6,57.6,0,0,0,23,4.58A62.69,62.69,0,0,0,62.83,149a58.22,58.22,0,0,0,11.27-3.6,47.18,47.18,0,0,0,18.61-14.51,36.92,36.92,0,0,0,3.22-5,36.33,36.33,0,0,0,2.4-5.5A37.3,37.3,0,0,0,100.33,108.52Z"/><path class="cls-1" d="M43.05,17.91a6.76,6.76,0,0,1,.41-3.19A2.34,2.34,0,0,1,45,13.47a3.52,3.52,0,0,1,1.91.22,10.09,10.09,0,0,1,2.79,1.75A23.48,23.48,0,0,1,52,17.59a49.11,49.11,0,0,1,4,4.74,53.8,53.8,0,0,1,3.4,5.1c2.07,3.51,3.74,7.23,5.69,10.78s4,7,6.12,10.49c1.06,1.73,2.12,3.47,3.11,5.24s1.94,3.56,2.86,5.37c1.86,3.61,3.62,7.27,5.18,11a108.6,108.6,0,0,1,4,11.55,55.42,55.42,0,0,1,1.36,6A23.11,23.11,0,0,1,88,94.05h-.3a32,32,0,0,0-1.52-5.79c-.66-1.89-1.37-3.75-2.11-5.61q-2.26-5.57-4.71-11.06L74.55,60.53c-1.66-3.66-3.26-7.36-4.86-11.07A89.43,89.43,0,0,0,64.17,38.7c-2.08-3.46-4.58-6.66-6.93-9.91s-4.54-6.59-7-9.66a18.73,18.73,0,0,0-4-4,2.62,2.62,0,0,0-1-.35,1.14,1.14,0,0,0-.83.48,7.2,7.2,0,0,0-1,2.66Z"/><path class="cls-1" d="M50.48,142.64a36.12,36.12,0,0,1-3.76.49,14.9,14.9,0,0,1-1.89,0c-.63,0-1.26,0-1.89-.09a28.26,28.26,0,0,1-3.76-.59,18.49,18.49,0,0,1-3.62-1.12,24.09,24.09,0,0,1-3.39-1.74c-1.11-.59-2.15-1.3-3.22-1.93-.54-.33-1.1-.59-1.63-.92s-1.05-.67-1.6-1-1.11-.59-1.62-.94-1.07-.67-1.6-1a24,24,0,0,1-3.1-2.22A22.26,22.26,0,0,1,16.64,129a27.8,27.8,0,0,1-4.45-6.28,23.86,23.86,0,0,1-2.27-14.94h.3A45.41,45.41,0,0,0,15,121.19a46.9,46.9,0,0,0,3.78,5.94c.74.92,1.44,1.89,2.27,2.75.4.44.79.89,1.18,1.36s.85.86,1.27,1.3a17.8,17.8,0,0,0,2.75,2.38,16.8,16.8,0,0,0,3.12,1.88c.56.25,1.12.5,1.68.73a14.22,14.22,0,0,0,1.75.54c1.18.3,2.33.66,3.52.88,2.32.6,4.61,1.23,6.95,1.79,1.18.22,2.35.54,3.55.79a36.06,36.06,0,0,1,3.63.81Z"/><path class="cls-1" d="M80.69,91.86l.39,7.41c.14,2.52.26,5.1.34,7.71l0,.8-.86,0c-7.12.24-14.25.37-21.37.45L60.49,107l.06,9.2c0,3.06,0,6.13-.08,9.19l0,1.29-1.24,0c-2.91,0-5.82-.16-8.73-.23l-8.73-.27-.79,0,0-.75c.1-3.06.19-6.13.24-9.19,0-1.54,0-3.07.05-4.6l0-4.6.45.45c-3.56,0-7.13,0-10.69.1l-10.69.27-.8,0,0-.84-.21-7.51c-.08-2.5-.13-5-.17-7.51l0-1.18,1.24,0c3.56-.07,7.13-.16,10.69-.18l10.69-.12L40.25,92l-.09-9.19V71.94l1.6,0c5.82.05,11.64.07,17.46.19l1.43,0,0,1.39c-.1,6.13-.22,12.26-.42,18.39l-1-1c3.67.12,7.34.24,10.93.4Zm-.21.21-10.83.49L59.21,93l-1,0,0-1c-.2-6.13-.32-12.26-.42-18.39L59.21,75c-5.82.12-11.64.14-17.46.19l1.61-1.6v9.2L43.26,92l0,1.52H41.75l-10.69-.12c-3.56,0-7.13-.11-10.69-.18L21.58,92c0,2.51-.09,5-.18,7.51L21.19,107l-.82-.83,10.69.27c3.56.06,7.13.1,10.69.1h.46V107l0,4.6c0,1.53,0,3.06.05,4.6,0,3.06.14,6.13.24,9.19l-.77-.76,8.73-.27c2.91-.07,5.82-.2,8.73-.23l-1.27,1.26c-.07-3.06-.07-6.13-.08-9.19l.06-9.2v-1.3h1.28c7.12.08,14.25.21,21.37.45l-.83.84c.07-2.41.2-4.83.34-7.31Z"/></g></g></svg>