<svg xmlns="http://www.w3.org/2000/svg" viewBox="0 0 150.92 152.84"><defs><style>.cls-1{fill:#fff;}</style></defs><g id="Layer_2" data-name="Layer 2"><g id="Layer_1-2" data-name="Layer 1"><path class="cls-1" d="M148.31,108.52a31.84,31.84,0,0,1-4,7.8,36,36,0,0,1-6,6.41c-.54.51-1.17.9-1.75,1.35a17.26,17.26,0,0,1-1.82,1.25l-1.89,1.16-2,1c-.33.17-.66.34-1,.49l-1,.42c-.69.27-1.37.58-2.07.82a41.87,41.87,0,0,1-4.28,1.23,38.85,38.85,0,0,1-8.87,1.07,35.1,35.1,0,0,1-4.48-.25c-.75-.09-1.49-.17-2.23-.28l-2.22-.43a40.92,40.92,0,0,1-16.11-7.67l-1-.8.8-1a36.15,36.15,0,0,0,5.66-9,25,25,0,0,0,2-10.41,20.13,20.13,0,0,0-.94-5.26,25.35,25.35,0,0,0-1-2.51c-.43-.79-.79-1.62-1.29-2.37-2-3-4.23-6-6.37-9l-.18-.24.16-.27q2-3.37,4-6.79c1.25-2.3,2.51-4.59,3.68-6.93,2.36-4.67,4.58-9.4,6.57-14.22s3.9-9.68,5.49-14.63c.79-2.47,1.57-5,2.22-7.46a71.52,71.52,0,0,0,1.66-7.49l.41-2.6,2,1.68A137,137,0,0,1,129.58,41c2.6,3.13,5,6.42,7.28,9.79,1.15,1.69,2.23,3.41,3.28,5.16s2,3.54,2.94,5.37a72.91,72.91,0,0,1,7.39,23.2,61.71,61.71,0,0,1,.28,12.15A58,58,0,0,1,148.31,108.52Zm-.28-.09a49.87,49.87,0,0,0,2.14-11.79,53.89,53.89,0,0,0-1-11.9,76.68,76.68,0,0,0-8.59-22.11A128.39,128.39,0,0,0,127.1,43.05c-2.52-3.08-5.19-6-7.93-8.92s-5.6-5.69-8.56-8.26L113,25a73.93,73.93,0,0,1-1.87,7.83c-.72,2.55-1.55,5.07-2.44,7.56Q106,47.8,102.6,55l-1.72,3.56c-.58,1.18-1.2,2.34-1.8,3.52-1.18,2.35-2.48,4.64-3.74,7s-2.65,4.54-3.94,6.83l-4.08,6.74,0-.52,3.21,4.48c1.08,1.5,2.18,2.94,3.22,4.52a23.46,23.46,0,0,1,3.69,10.58,26.17,26.17,0,0,1-1.58,11.18,38.26,38.26,0,0,1-5.52,9.89l-.21-1.75a43.28,43.28,0,0,0,15.23,7l2.06.44c.7.12,1.4.2,2.1.3,1.39.25,2.8.28,4.21.4a43.55,43.55,0,0,0,8.45-.55,40.24,40.24,0,0,0,4.17-.9c.68-.19,1.35-.44,2-.66l1-.33c.33-.13.65-.28,1-.42l2-.84,1.89-1a16.26,16.26,0,0,0,1.84-1.1c.6-.4,1.23-.75,1.79-1.2a30.56,30.56,0,0,0,6.15-6A30,30,0,0,0,148,108.43Z"/><path class="cls-1" d="M100.87,139.69c1.89-3.59,3.76-7.15,5.54-10.75l5.25-10.81a102.71,102.71,0,0,0,5-11,60.53,60.53,0,0,0,2.88-11.71c.3-2,.53-4,.75-6l.33-3,.26-3c.27-4,.44-8,.36-11.94a152.87,152.87,0,0,0-2-23.93l.29-.08a63.21,63.21,0,0,1,3.53,11.73c.47,2,.69,4,1,6.08.12,1,.18,2,.26,3.07l.11,1.54,0,1.54a76.35,76.35,0,0,1-.74,12.28,74.05,74.05,0,0,1-2.56,12c-1.13,3.92-2.39,7.78-3.56,11.67s-2.19,7.85-3.66,11.67a70,70,0,0,1-5.5,10.94,57.81,57.81,0,0,1-7.33,9.8Z"/><path class="cls-1" d="M122.81,73.38a5.39,5.39,0,0,1-2.33-.3A4.31,4.31,0,0,1,118.66,72a18,18,0,0,0-1.36-1.8,4.06,4.06,0,0,0-2-.86,7.81,7.81,0,0,1-2.1-.66,9.37,9.37,0,0,1-1.88-1,8.79,8.79,0,0,1-1.54-1.51,7.39,7.39,0,0,1-1.22-2l.17-.25a7.48,7.48,0,0,1,2.33.29,8.88,8.88,0,0,1,2,.8,9.09,9.09,0,0,1,1.67,1.31A7.5,7.5,0,0,1,116.23,68a4,4,0,0,0,1.6,1.43,16.66,16.66,0,0,0,2.19.51,4.55,4.55,0,0,1,1.73,1.22,5.38,5.38,0,0,1,1.22,2Z"/><path class="cls-1" d="M121.31,94.26a7.88,7.88,0,0,1,1.46-2.47,7,7,0,0,1,2-1.74A26.91,26.91,0,0,0,127.39,89,6.45,6.45,0,0,0,129.27,87,12.2,12.2,0,0,1,131,84.88a15.48,15.48,0,0,1,2-1.82,14.32,14.32,0,0,1,2.36-1.35,10.86,10.86,0,0,1,2.74-.87l.18.23a11,11,0,0,1-1.45,2.49,13.42,13.42,0,0,1-1.83,2,14.3,14.3,0,0,1-2.21,1.54,11.73,11.73,0,0,1-2.46,1.21A6.39,6.39,0,0,0,128,89.72,25.15,25.15,0,0,0,126.38,92a7.1,7.1,0,0,1-2.15,1.61,7.7,7.7,0,0,1-2.73.89Z"/><path class="cls-1" d="M113.65,116.44a11.48,11.48,0,0,1-2.72-2.21A11.12,11.12,0,0,1,109,111.5c-.46-1-.69-2.23-1.24-3.21a10.2,10.2,0,0,0-2.15-2.59,18.17,18.17,0,0,1-2.37-2.44,23,23,0,0,1-2-2.68,19.65,19.65,0,0,1-2.55-6.36l.25-.17a19.7,19.7,0,0,1,5,4.74,26.07,26.07,0,0,1,1.72,2.88,18.14,18.14,0,0,1,1.38,3.11,9.87,9.87,0,0,0,1.59,3c.7.88,1.73,1.53,2.51,2.35a10.86,10.86,0,0,1,1.81,2.82,11.5,11.5,0,0,1,1,3.35Z"/><path class="cls-1" d="M89.48,122a48.63,48.63,0,0,1-6.2,6.39,57.15,57.15,0,0,1-7.18,5.28,59.63,59.63,0,0,1-7.94,4.11,57.46,57.46,0,0,1-8.53,2.79h-.16l.15,0a53.57,53.57,0,0,1-30.08-1.65,57.3,57.3,0,0,1-5.61-2.49,51.21,51.21,0,0,1-5.29-3.15c-.83-.6-1.63-1.25-2.45-1.87-.4-.33-.83-.61-1.2-1l-1.13-1.05C7.7,123.91,3.73,116.12,1.94,108.31a69.8,69.8,0,0,1-1.54-24c0-1,.26-2,.39-3l.44-3,.61-2.94c.2-1,.39-2,.67-2.94.53-1.93,1-3.89,1.62-5.79L5,63.76l1-2.82A136.94,136.94,0,0,1,16.56,39.31,168,168,0,0,1,30.23,19.5,171.26,171.26,0,0,1,46.52,1.68L48.31,0l.55,2.48c.58,2.58,1.35,5.27,2.19,7.87s1.76,5.22,2.73,7.8c.46,1.29,1,2.56,1.51,3.85s1,2.56,1.58,3.82l1.63,3.81,1.72,3.76c2.31,5,4.82,9.94,7.38,14.84,1.29,2.45,2.67,4.85,4,7.27s2.79,4.78,4.17,7.17c5.68,9.53,11.68,18.78,18,28a23,23,0,0,1,3.06,7.93,23.64,23.64,0,0,1-.06,8.43A34,34,0,0,1,89.48,122Zm-.23-.18A32.13,32.13,0,0,0,96.16,107a21.41,21.41,0,0,0-.28-8.14,21.69,21.69,0,0,0-3.28-7.38c-.75-1.1-1.61-2.22-2.45-3.32L87.61,84.8c-1.71-2.2-3.29-4.49-4.94-6.74l-2.44-3.4c-.8-1.15-1.55-2.32-2.33-3.48-1.54-2.33-3.14-4.61-4.57-7S70.36,59.44,69,57s-2.78-4.84-4.12-7.29-2.66-4.92-3.91-7.42-2.5-5-3.63-7.57c-2.39-5.06-4.48-10.26-6.41-15.52-1-2.63-1.86-5.29-2.68-8S46.66,5.86,46.07,3l2.35.79c-2.89,2.62-5.7,5.47-8.42,8.34S34.63,18,32.08,21A185,185,0,0,0,17.93,40.15,117.55,117.55,0,0,0,7,61.31a81.64,81.64,0,0,0-5.6,23.06,65.18,65.18,0,0,0,2.3,23.44c.21,1,.63,1.87.93,2.8l1,2.78a39.17,39.17,0,0,0,2.62,5.17,44.38,44.38,0,0,0,3.33,4.74,45.21,45.21,0,0,0,4,4.15,26.42,26.42,0,0,0,2.21,1.88c.78.58,1.53,1.19,2.32,1.75a53.39,53.39,0,0,0,5,3,55.13,55.13,0,0,0,5.29,2.44c1.85.59,3.66,1.31,5.57,1.74a54.31,54.31,0,0,0,23.3,1h0a55.48,55.48,0,0,0,8.46-2.32,52.63,52.63,0,0,0,8-3.71A48.75,48.75,0,0,0,89.25,121.82Z"/><path class="cls-1" d="M38.78,33c-.5,4.66-1.05,9.25-1.38,13.85s-.51,9.2-.69,13.81a110.84,110.84,0,0,0,0,13.88A77.24,77.24,0,0,0,39.3,88.21c1.26,4.47,2.66,8.87,4.12,13.25s3.15,8.66,4.88,12.94,3.53,8.53,5.41,12.76,3.88,8.42,5.89,12.64l-.26.16a114.18,114.18,0,0,1-14-24.34,118.43,118.43,0,0,1-4.64-13.31,101.26,101.26,0,0,1-3-13.75c-.71-4.64-1.31-9.27-1.93-13.9s-1.35-9.28-1.56-14a64,64,0,0,1,.12-7.06c.08-1.17.19-2.34.3-3.51s.28-2.34.46-3.5a70.37,70.37,0,0,1,3.4-13.66Z"/><path class="cls-1" d="M68.24,152.84a4.63,4.63,0,0,1-2-.93A3.67,3.67,0,0,1,65,150.37a17.37,17.37,0,0,0-.52-2,3.67,3.67,0,0,0-1.4-1.42,6.89,6.89,0,0,1-1.6-1.3,8,8,0,0,1-1.24-1.55,7.42,7.42,0,0,1-.87-4.1l.26-.16a7,7,0,0,1,1.9,1.11,7.78,7.78,0,0,1,1.4,1.41,8.07,8.07,0,0,1,.91,1.72,7,7,0,0,1,.59,1.94,3.39,3.39,0,0,0,.84,1.79A12.81,12.81,0,0,0,67,148.9a3.81,3.81,0,0,1,1.09,1.6,5.2,5.2,0,0,1,.39,2.15Z"/><path class="cls-1" d="M35.53,66.58a8.1,8.1,0,0,1,1.66-2.42,7.56,7.56,0,0,1,2.21-1.65,25.93,25.93,0,0,0,2.69-1,6.74,6.74,0,0,0,2.06-1.86,13.05,13.05,0,0,1,1.9-2.08,16.13,16.13,0,0,1,2.15-1.73,13.77,13.77,0,0,1,2.49-1.24,11,11,0,0,1,2.85-.75l.17.25a11.56,11.56,0,0,1-1.66,2.43,14.64,14.64,0,0,1-2,1.93,15.19,15.19,0,0,1-2.35,1.43,12.54,12.54,0,0,1-2.6,1.1,6.85,6.85,0,0,0-2.44,1.31,28,28,0,0,0-1.81,2.21,7.26,7.26,0,0,1-2.3,1.52,8.14,8.14,0,0,1-2.84.76Z"/><path class="cls-1" d="M38.77,94.39a12.24,12.24,0,0,1-3.45-1.28,12,12,0,0,1-2.89-2c-.83-.85-1.49-1.94-2.39-2.71a10.76,10.76,0,0,0-3-1.83,21.81,21.81,0,0,1-3.2-1.62,28,28,0,0,1-2.95-2A21.52,21.52,0,0,1,16,77.58l.18-.24a21.55,21.55,0,0,1,6.54,3,27.89,27.89,0,0,1,2.74,2.24A20.31,20.31,0,0,1,28,85.21a11.45,11.45,0,0,0,2.65,2.37c1,.63,2.23.94,3.3,1.48a12.46,12.46,0,0,1,2.79,2.17A12.23,12.23,0,0,1,39,94.15Z"/><path class="cls-1" d="M50.06,122.59a18,18,0,0,1,1.42-4.25,18.19,18.19,0,0,1,2.21-3.76c.92-1.14,2.09-2.12,2.93-3.31a17.1,17.1,0,0,0,2-3.9,30.19,30.19,0,0,1,1.77-4,40.55,40.55,0,0,1,2.12-3.81,32.28,32.28,0,0,1,5.8-6.67l.26.16a32.3,32.3,0,0,1-3.33,8.19,39.54,39.54,0,0,1-2.44,3.62,30.8,30.8,0,0,1-2.78,3.4,16.66,16.66,0,0,0-2.57,3.54c-.69,1.29-1,2.78-1.63,4.12a18.61,18.61,0,0,1-2.35,3.67,18.26,18.26,0,0,1-3.15,3.19Z"/></g></g></svg>