<svg xmlns="http://www.w3.org/2000/svg" viewBox="0 0 151.62 154.16"><defs><style>.cls-1{fill:#fff;}</style></defs><g id="Layer_2" data-name="Layer 2"><g id="Layer_1-2" data-name="Layer 1"><path class="cls-1" d="M65.25,71a31.28,31.28,0,0,1-1.87,5.11,35.15,35.15,0,0,1-2.68,4.74,31.9,31.9,0,0,1-3.44,4.26,30.61,30.61,0,0,1-4.17,3.61l0,0-.1,0h0l.14-.07a30.7,30.7,0,0,1-7,3.58,28.86,28.86,0,0,1-7.84,1.43A27.46,27.46,0,0,1,22.86,89.6a26,26,0,0,1-6.08-5.23l-1.27-1.55L14.4,81.19c-.36-.55-.75-1.07-1.08-1.64l-1-1.7A53.92,53.92,0,0,1,6.76,63.34,91,91,0,0,1,5.47,32.55a113.25,113.25,0,0,1,7.66-30l1-2.51,1.47,2.41a92.91,92.91,0,0,0,6.26,8.84q3.39,4.29,7,8.37,7.29,8.18,15.31,15.7c5.34,5,10.74,9.9,16.37,14.77a18,18,0,0,1,5.27,9.85A24.94,24.94,0,0,1,65.25,71ZM65,70.9a22.45,22.45,0,0,0,.31-10.83,16.06,16.06,0,0,0-5.59-8.94c-1.37-1.08-3-2.17-4.42-3.25s-3-2.23-4.43-3.34-2.92-2.28-4.34-3.47-2.85-2.36-4.23-3.61A178.14,178.14,0,0,1,26.53,21.74c-2.49-2.76-4.8-5.68-7-8.64a96.74,96.74,0,0,1-6.29-9.32l2.49-.11a127.21,127.21,0,0,0-5.19,14.25A121.24,121.24,0,0,0,7,32.76c-1.74,10-1.8,20.47.86,30.3A49.9,49.9,0,0,0,14,76.84l1,1.57c.35.52.76,1,1.13,1.5l1.15,1.49,1.24,1.36a25.85,25.85,0,0,0,5.69,4.57,27.16,27.16,0,0,0,6.68,2.9,30.38,30.38,0,0,0,7.24,1.07,31.87,31.87,0,0,0,7.32-.84,30.3,30.3,0,0,0,6.88-2.85l.1-.06h0l-.14.07a27.82,27.82,0,0,0,4.27-3.15,27,27,0,0,0,3.6-3.95,28.21,28.21,0,0,0,2.8-4.58A30.26,30.26,0,0,0,65,70.9Z"/><path class="cls-1" d="M16.66,24l5.63,17.75a77.89,77.89,0,0,0,2.88,8.88,45.47,45.47,0,0,0,4.65,8.09c1.82,2.53,3.67,5,5.51,7.5s3.8,4.87,5.74,7.27c3.81,4.87,7.8,9.6,11.76,14.51l-.2.23a68.69,68.69,0,0,1-14-12.71A75.27,75.27,0,0,1,33,67.88a63.94,63.94,0,0,1-4.6-8.3c-1.34-2.86-2.67-5.7-4.1-8.5S21.22,45.56,20,42.64a34.08,34.08,0,0,1-1.59-4.48c-.44-1.52-.83-3.06-1.13-4.62a42.9,42.9,0,0,1-.87-9.46Z"/><path class="cls-1" d="M57.32,92.52a2.36,2.36,0,0,1-1.27.22c-.3-.06-.58-.15-.64-.47s.06-.85-.07-1.1-.43-.31-.81-.28a1.91,1.91,0,0,1-1-.09,1.35,1.35,0,0,1-.71-.4,1.59,1.59,0,0,1-.3-.84,3.43,3.43,0,0,1,.1-1.3l.21-.22a3.57,3.57,0,0,1,1.28-.23A1.71,1.71,0,0,1,55,88a1.43,1.43,0,0,1,.47.67,2,2,0,0,1,.18,1c0,.39.09.69.36.79s.77-.07,1.1,0,.44.3.53.59a2.33,2.33,0,0,1-.1,1.29Z"/><path class="cls-1" d="M22.51,46.05a4.08,4.08,0,0,1,0-2,3,3,0,0,1,.81-1.49c.46-.38,1.17-.61,1.53-1.05a2.6,2.6,0,0,0,.59-1.62,5.4,5.4,0,0,1,.37-1.75,6.38,6.38,0,0,1,.72-1.54,6,6,0,0,1,1.24-1.23,5.94,5.94,0,0,1,1.76-.91l.26.16a6,6,0,0,1,0,2,5.65,5.65,0,0,1-.52,1.66,5.82,5.82,0,0,1-1,1.35,5.24,5.24,0,0,1-1.39,1.14,2.65,2.65,0,0,0-1.17,1.27,13.42,13.42,0,0,0-.22,1.84,2.86,2.86,0,0,1-.95,1.4,4,4,0,0,1-1.75.92Z"/><path class="cls-1" d="M30.74,63.21a5.82,5.82,0,0,1-2.42.16,4.71,4.71,0,0,1-2.09-.72,19.11,19.11,0,0,0-1.78-1.5,4.31,4.31,0,0,0-2.18-.48A8.42,8.42,0,0,1,20,60.44a10.32,10.32,0,0,1-2.12-.62A9.75,9.75,0,0,1,16,58.64a8.09,8.09,0,0,1-1.68-1.76l.1-.28a8.19,8.19,0,0,1,2.43-.17,10,10,0,0,1,2.21.4,10.4,10.4,0,0,1,2,1,8.05,8.05,0,0,1,1.84,1.35,4.41,4.41,0,0,0,1.94,1.1,18,18,0,0,0,2.33.08,4.7,4.7,0,0,1,2,.87,5.64,5.64,0,0,1,1.69,1.74Z"/><path class="cls-1" d="M43.47,79a8.63,8.63,0,0,1-.6-3,7.91,7.91,0,0,1,.32-2.82,25.51,25.51,0,0,0,1.16-2.7,7.17,7.17,0,0,0,.07-2.85,13.55,13.55,0,0,1-.19-2.89,16.82,16.82,0,0,1,.22-2.84,15.34,15.34,0,0,1,.82-2.74,11.9,11.9,0,0,1,1.42-2.67l.3,0a11.87,11.87,0,0,1,.62,3,15.29,15.29,0,0,1,0,2.87A15.8,15.8,0,0,1,47,65.14a13,13,0,0,1-1,2.72,7.22,7.22,0,0,0-.73,2.76,27.05,27.05,0,0,0,.36,2.92,7.85,7.85,0,0,1-.49,2.79A8.31,8.31,0,0,1,43.77,79Z"/><path class="cls-1" d="M118,80.76a14.49,14.49,0,0,0,2.6,5.17,13.5,13.5,0,0,0,2,2.08,13.65,13.65,0,0,0,2.34,1.6l-.14-.06h0l.12.06a15.23,15.23,0,0,0,14.8-.42,14.05,14.05,0,0,0,3-2.33l.67-.7.62-.78a17.35,17.35,0,0,0,1.21-1.61,25,25,0,0,0,3.5-7.31,34.8,34.8,0,0,0,.38-16.36,68.15,68.15,0,0,0-2.09-8,75.39,75.39,0,0,0-2.9-7.62l2.51.11a50.52,50.52,0,0,1-3.43,5.18c-1.22,1.63-2.47,3.24-3.84,4.75a86.18,86.18,0,0,1-8.65,8.55c-1.54,1.32-3.12,2.58-4.76,3.76s-3.37,2.32-4.94,3.42a8.27,8.27,0,0,0-3.11,4.64A11.56,11.56,0,0,0,118,80.76Zm-.29.08a14.29,14.29,0,0,1-.41-6,10.18,10.18,0,0,1,2.79-5.57c3-2.77,5.8-5.52,8.66-8.28s5.59-5.59,8.22-8.52c1.31-1.47,2.59-3,3.81-4.49a53.49,53.49,0,0,0,3.4-4.7l1.49-2.39,1,2.5a58,58,0,0,1,3.92,16.54,56,56,0,0,1-.79,16.84,31.67,31.67,0,0,1-2.89,8.07,16.65,16.65,0,0,1-1.1,1.87l-.6.92-.69.88a14.47,14.47,0,0,1-3.4,3,14.77,14.77,0,0,1-8.66,2.27,15.88,15.88,0,0,1-4.39-.9,17,17,0,0,1-3.86-2.13l.14.07h0l-.12,0,0,0A17.63,17.63,0,0,1,122,88.64a19.15,19.15,0,0,1-1.83-2.39A19.36,19.36,0,0,1,117.69,80.84Z"/><path class="cls-1" d="M124.46,90.05a35.71,35.71,0,0,1,2.89-4.26A37,37,0,0,1,130.6,82a35,35,0,0,0,3.65-3.55A16.33,16.33,0,0,0,136.68,74c.59-1.59,1.17-3.17,1.81-4.7s1.13-3.11,1.74-4.64c1.26-3.06,2.41-6.14,3.86-9.35l.3.05a24.07,24.07,0,0,1-1.15,10.39,28.86,28.86,0,0,1-2.19,4.76,25.37,25.37,0,0,1-3,4.32A38,38,0,0,0,135,79c-.9,1.45-1.56,3.11-2.5,4.58a19.59,19.59,0,0,1-3.5,3.83,18.25,18.25,0,0,1-4.38,2.88Z"/><path class="cls-1" d="M125.06,89.12a2.15,2.15,0,0,1,.16,1.22c-.07.27-.17.52-.47.53s-.8-.2-1-.12-.32.34-.32.71a1.63,1.63,0,0,1-.17.91,1.17,1.17,0,0,1-.44.59,1.56,1.56,0,0,1-.83.1,3.08,3.08,0,0,1-1.18-.41l-.18-.24a2.48,2.48,0,0,1,.21-2,1.1,1.1,0,0,1,.64-.27,1.75,1.75,0,0,1,.9,0c.36.07.64,0,.75-.18s0-.73,0-1,.3-.35.57-.38a2.33,2.33,0,0,1,1.19.29Z"/><path class="cls-1" d="M140.78,67.4a2.39,2.39,0,0,1-1.34-.26c-.29-.18-.56-.38-.55-.74s.26-.88.18-1.18-.37-.5-.77-.61a2.2,2.2,0,0,1-1-.48,1.83,1.83,0,0,1-.64-.69,2.14,2.14,0,0,1-.12-1,3.51,3.51,0,0,1,.41-1.32l.25-.16a3.55,3.55,0,0,1,1.36.25,2.08,2.08,0,0,1,.84.57,1.83,1.83,0,0,1,.32.88,2.39,2.39,0,0,1,0,1.09c-.09.41-.07.76.18,1s.81.23,1.14.39.37.49.4.83a2.39,2.39,0,0,1-.39,1.31Z"/><path class="cls-1" d="M136.42,76.39a2.76,2.76,0,0,1,.76-1.38,1.41,1.41,0,0,1,1.08-.51c.45,0,1,.34,1.4.28a1.41,1.41,0,0,0,1-.74,3.24,3.24,0,0,1,.91-1,3.08,3.08,0,0,1,1.05-.6,3.35,3.35,0,0,1,1.27,0,4.38,4.38,0,0,1,1.49.54l.1.28a4,4,0,0,1-.74,1.39,3.22,3.22,0,0,1-1,.82,3.12,3.12,0,0,1-1.18.26,3.18,3.18,0,0,1-1.34-.13,1.43,1.43,0,0,0-1.24.12c-.34.23-.54.82-.84,1.14a1.47,1.47,0,0,1-1.15.36,2.93,2.93,0,0,1-1.48-.52Z"/><path class="cls-1" d="M129.36,85.19a3.54,3.54,0,0,1-1.23-1.38,2.38,2.38,0,0,1-.3-1.51,11.21,11.21,0,0,0,.54-1.64,2.29,2.29,0,0,0-.55-1.48,4.52,4.52,0,0,1-.81-1.44,4.7,4.7,0,0,1-.4-1.5,4.87,4.87,0,0,1,.2-1.58,5,5,0,0,1,.8-1.67l.3,0a5.59,5.59,0,0,1,1.24,1.38,5.22,5.22,0,0,1,.63,1.47,5,5,0,0,1,0,1.55,4.65,4.65,0,0,1-.38,1.61,2.27,2.27,0,0,0-.11,1.57c.16.5.71.94,1,1.42a2.39,2.39,0,0,1,.13,1.54,3.51,3.51,0,0,1-.79,1.67Z"/><path class="cls-1" d="M151.49,92.42l.1,3.62,0,1.86,0,1.8-.11,3.59-.26,3.58a78.23,78.23,0,0,1-2.44,14.21A48.07,48.07,0,0,1,143,134.43,37.8,37.8,0,0,1,132.75,145a47,47,0,0,1-13.36,6,78.78,78.78,0,0,1-14.29,2.56c-9.61.89-19.18.62-28.72.47s-19.1-.34-28.63-1.32a88.23,88.23,0,0,1-14.14-2.53,46.24,46.24,0,0,1-13.2-5.78,37.31,37.31,0,0,1-10.33-10.13,48.46,48.46,0,0,1-6.22-13.12C1,111.84.19,102.13,0,92.53l0-1.35H1.38L39.18,91l18.91,0L77,91.15l37.51.54,18.6.33Zm-.21.22-19.07.4-18.9.33-37.5.54-18.63.15-18.6,0-37.2-.21,1.36-1.36a139.13,139.13,0,0,0,.59,14.15,87.77,87.77,0,0,0,2.46,13.87,46,46,0,0,0,5.57,12.84A35.87,35.87,0,0,0,21,143.44a45.65,45.65,0,0,0,12.84,5.79,74.88,74.88,0,0,0,14,2.49c9.47.88,19,.63,28.53.46s19.07-.33,28.45-1.3a83,83,0,0,0,13.84-2.47,45.08,45.08,0,0,0,12.68-5.55c7.76-5.05,13-13.29,15.75-22.27a89.68,89.68,0,0,0,3-13.84l.44-3.54.3-3.55.14-1.77.1-1.72Z"/><path class="cls-1" d="M103.18,92.64,96.79,93q-3.23.19-6.56.33c-4.44.2-9,.36-13.5.43l-1.19,0V92.51a82.39,82.39,0,0,1,.56-11.05,22.75,22.75,0,0,1,.55-2.83,18.37,18.37,0,0,1,1-2.76A30.1,30.1,0,0,1,80.61,71l-.23.71c.27-10.5.9-21,.8-31.5,0-5.25-.16-10.5-.32-15.74a12.11,12.11,0,0,1,.36-4.18,9.78,9.78,0,0,1,2.16-3.76,10,10,0,0,1,8-3.18,10.11,10.11,0,0,1,9.4,8.41,14.42,14.42,0,0,1,.14,2.18l0,2c.07,5.25.14,10.5.12,15.75,0,10.5-.2,21-.55,31.5l-.14-.52a30.19,30.19,0,0,1,2,4.74,21.78,21.78,0,0,1,.86,5.09c.11,1.69.13,3.37.13,5l0,2.51,0,1.25C103.27,91.68,103.23,92.23,103.18,92.64Zm-.21-.22a10.93,10.93,0,0,1-.15-1.13l-.1-1.25-.22-2.48c-.16-1.65-.36-3.3-.62-4.92A20.58,20.58,0,0,0,100.75,78a28.54,28.54,0,0,0-2.23-4.28l-.13-.21v-.31c-.35-10.5-.51-21-.55-31.5,0-5.25,0-10.5.12-15.75,0-1.28.1-2.73,0-3.71a7.28,7.28,0,0,0-1.18-3.05,7.76,7.76,0,0,0-5.58-3.34A8,8,0,0,0,84.85,18a7.87,7.87,0,0,0-1.92,2.9,9.69,9.69,0,0,0-.52,3.61c-.16,5.24-.32,10.49-.31,15.74-.11,10.5.52,21,.79,31.5v.37l-.23.35A35.28,35.28,0,0,0,80.12,77a14.17,14.17,0,0,0-.88,2.33c-.2.79-.37,1.66-.5,2.52a96.53,96.53,0,0,0-.8,10.7l-1.21-1.22c4.25.07,8.5.23,12.85.43Z"/></g></g></svg>