<svg xmlns="http://www.w3.org/2000/svg" viewBox="0 0 151 155.05"><defs><style>.cls-1{fill:#fff;}</style></defs><g id="Layer_2" data-name="Layer 2"><g id="Layer_1-2" data-name="Layer 1"><path class="cls-1" d="M.77,90.07a54.51,54.51,0,0,1,16.89-12,55.4,55.4,0,0,1,9.9-3.49A43.64,43.64,0,0,1,38,73.19,55.77,55.77,0,0,1,58.41,77a84.81,84.81,0,0,1,18.38,9.52l4.22,3,4.12,3a92.08,92.08,0,0,0,8.62,5.28L96,99l2.29,1c1.51.73,3.11,1.2,4.66,1.8a51.49,51.49,0,0,0,9.68,2.11A37.9,37.9,0,0,0,132,101a45.91,45.91,0,0,0,16.12-12l.25.17A41,41,0,0,1,133,103.11a37.34,37.34,0,0,1-20.69,4,47.06,47.06,0,0,1-10.37-2.33c-1.63-.68-3.31-1.24-4.87-2l-2.37-1.14-2.3-1.28c-1.55-.82-3-1.82-4.45-2.76s-2.82-2.05-4.22-3.07-2.69-2.2-4-3.32l-3.9-3.29a57.64,57.64,0,0,0-17.72-9.92,48.87,48.87,0,0,0-4.91-1.36c-.83-.17-1.67-.29-2.5-.44l-1.25-.21-1.27-.12a50.6,50.6,0,0,0-10.07-.13C24.72,76.56,11.83,82,1,90.28Z"/><path class="cls-1" d="M1.34,105.89A54,54,0,0,1,18,94a50.69,50.69,0,0,1,20.07-5c1.73-.09,3.47.07,5.19.15s3.45.35,5.13.72a63.2,63.2,0,0,1,9.92,2.71,85.44,85.44,0,0,1,18.28,9.22c1.44.93,2.8,2,4.21,3s2.72,2,4.07,3,2.78,1.87,4.16,2.81,2.84,1.75,4.28,2.58l2.2,1.16,1.1.59,1.13.51,2.26,1,2.32.88a47.62,47.62,0,0,0,9.48,2.48A35.86,35.86,0,0,0,131,117.65a38.62,38.62,0,0,0,8.62-4.86,42.17,42.17,0,0,0,7.32-6.88l.25.17a30.64,30.64,0,0,1-3,4.17,37.07,37.07,0,0,1-3.6,3.71A37.65,37.65,0,0,1,132,119.8a34.46,34.46,0,0,1-10,3.13,37.66,37.66,0,0,1-10.55,0c-7-1-13.53-3.85-19.46-7.36-1.46-.92-2.92-1.85-4.34-2.83s-2.78-2-4.11-3.11-2.65-2.2-3.94-3.29-2.54-2.2-3.87-3.22A57.45,57.45,0,0,0,58,93.54a20.24,20.24,0,0,0-2.42-.69c-.82-.2-1.62-.45-2.45-.6-1.66-.27-3.3-.59-5-.7s-3.33-.21-5-.28-3.32.07-5,.25C25,92.49,12.28,97.9,1.55,106.1Z"/><path class="cls-1" d="M151,138a36.15,36.15,0,0,1-15.22,13.71,34.1,34.1,0,0,1-20.55,2.84,44.49,44.49,0,0,1-9.93-3.06l-2.36-1.05-2.28-1.19c-1.55-.74-3-1.7-4.47-2.52s-2.88-1.83-4.32-2.74-2.81-1.93-4.19-2.93c-2.71-2.1-5.5-4-8.24-5.95a72.37,72.37,0,0,0-17.89-8.79,55.67,55.67,0,0,0-19.5-2.55A59.94,59.94,0,0,0,22.77,128a68.08,68.08,0,0,0-9,4.35A66.68,66.68,0,0,0,5.36,138l-.21-.21a56.84,56.84,0,0,1,16.68-11.93,54.86,54.86,0,0,1,20.05-5.31,52.17,52.17,0,0,1,10.45.51,57.49,57.49,0,0,1,10.12,2.56c1.62.63,3.26,1.19,4.81,2,.78.38,1.58.71,2.34,1.13L71.88,128c1.53.8,2.94,1.8,4.39,2.71.71.49,1.4,1,2.1,1.51a25.68,25.68,0,0,1,2,1.58l4,3.24c1.32,1.08,2.6,2.16,3.91,3.22s2.73,2,4.09,3,2.85,1.8,4.3,2.66a51.59,51.59,0,0,0,9.21,4,44.81,44.81,0,0,0,9.7,2.15,42.65,42.65,0,0,0,9.78,0,36.57,36.57,0,0,0,9.45-2.51,40.42,40.42,0,0,0,4.43-2.18,49.62,49.62,0,0,0,4.16-2.73c1.32-1,2.63-2.05,3.87-3.19a41.44,41.44,0,0,0,3.47-3.66Z"/><path class="cls-1" d="M9.56,83.74a6.34,6.34,0,0,1,.54,2.53,5.51,5.51,0,0,1-.37,2.35,22.61,22.61,0,0,0-1.21,2.19,5.1,5.1,0,0,0-.13,2.4,9.28,9.28,0,0,1,.13,2.45A11,11,0,0,1,8.25,98a10.93,10.93,0,0,1-.86,2.26,9.3,9.3,0,0,1-1.47,2.14v0H5.61v0a8.93,8.93,0,0,1-.55-2.54,10.2,10.2,0,0,1,.05-2.41,11.71,11.71,0,0,1,.63-2.3,9.75,9.75,0,0,1,1-2.22,5.22,5.22,0,0,0,.78-2.27,21.66,21.66,0,0,0-.3-2.49,5.71,5.71,0,0,1,.54-2.32,6.38,6.38,0,0,1,1.46-2.14Z"/><path class="cls-1" d="M24.78,76.75a5.59,5.59,0,0,1,.58,2.34A4.79,4.79,0,0,1,25,81.25a18.58,18.58,0,0,0-1.17,2,4.33,4.33,0,0,0-.1,2.21,8,8,0,0,1,.17,2.26,10,10,0,0,1-.24,2.18A9.72,9.72,0,0,1,22.87,92a7.92,7.92,0,0,1-1.43,2v0h-.32v0a8.26,8.26,0,0,1-.58-2.34,9.24,9.24,0,0,1,0-2.23,10.09,10.09,0,0,1,.6-2.11,8,8,0,0,1,1-2,4.29,4.29,0,0,0,.74-2.08,18.58,18.58,0,0,0-.33-2.29,4.69,4.69,0,0,1,.5-2.13,5.62,5.62,0,0,1,1.42-1.94Z"/><path class="cls-1" d="M39.11,74.41a5.21,5.21,0,0,1,.6,2.2,4.08,4.08,0,0,1-.31,2,16.69,16.69,0,0,0-1.15,1.86,3.81,3.81,0,0,0-.06,2.07,7.41,7.41,0,0,1,.19,2.12,7,7,0,0,1-1,4A7,7,0,0,1,36,90.46l-.29-.06A7.18,7.18,0,0,1,35,88.2a7,7,0,0,1,.56-4.06,7,7,0,0,1,1-1.89,3.85,3.85,0,0,0,.72-2,15.31,15.31,0,0,0-.36-2.15,4.23,4.23,0,0,1,.48-2,5.21,5.21,0,0,1,1.39-1.81Z"/><path class="cls-1" d="M52.69,75.8a4.76,4.76,0,0,1,.63,2.08A3.65,3.65,0,0,1,53,79.79a15.05,15.05,0,0,0-1.12,1.74,3.43,3.43,0,0,0,0,2,6.62,6.62,0,0,1,.21,2,7.71,7.71,0,0,1-.18,1.93,7.38,7.38,0,0,1-.79,1.81,6.42,6.42,0,0,1-1.38,1.69l-.29-.06a6.55,6.55,0,0,1-.65-2.08,7.76,7.76,0,0,1,0-2A8.18,8.18,0,0,1,49.3,85a6.72,6.72,0,0,1,1-1.78,3.38,3.38,0,0,0,.7-1.82,16.94,16.94,0,0,0-.38-2A3.56,3.56,0,0,1,51,77.43a4.7,4.7,0,0,1,1.37-1.69Z"/><path class="cls-1" d="M65.61,80.53a4.35,4.35,0,0,1,.65,2,3.23,3.23,0,0,1-.26,1.8A13.92,13.92,0,0,0,64.89,86a3.07,3.07,0,0,0,0,1.85,6.31,6.31,0,0,1,.23,1.89,6.47,6.47,0,0,1-.17,1.82,6.29,6.29,0,0,1-.76,1.7,6.2,6.2,0,0,1-1.36,1.59l-.3-.06a6.32,6.32,0,0,1-.66-2,6.88,6.88,0,0,1-.06-1.86,6.8,6.8,0,0,1,.53-1.75,6,6,0,0,1,.93-1.67,3,3,0,0,0,.68-1.72,12.51,12.51,0,0,0-.4-1.93A3.37,3.37,0,0,1,64,82.06a4.45,4.45,0,0,1,1.35-1.58Z"/><path class="cls-1" d="M77.94,88.34a4,4,0,0,1,.67,1.88,2.92,2.92,0,0,1-.25,1.7,12.55,12.55,0,0,0-1.08,1.53,2.69,2.69,0,0,0,0,1.75,5.47,5.47,0,0,1,.25,1.8,5.81,5.81,0,0,1-.15,1.72,5.92,5.92,0,0,1-.74,1.6,5.73,5.73,0,0,1-1.34,1.48l-.3,0a6.19,6.19,0,0,1-.68-1.89,5.83,5.83,0,0,1-.08-1.76,6.18,6.18,0,0,1,.51-1.65,5.42,5.42,0,0,1,.92-1.57,2.78,2.78,0,0,0,.66-1.61,12.78,12.78,0,0,0-.42-1.84,2.89,2.89,0,0,1,.41-1.66,4,4,0,0,1,1.33-1.49Z"/><path class="cls-1" d="M90,97.26a4.09,4.09,0,0,1,.66,1.91,3,3,0,0,1-.25,1.72,13.87,13.87,0,0,0-1.09,1.57,2.78,2.78,0,0,0,0,1.78,5.64,5.64,0,0,1,.25,1.83,6.31,6.31,0,0,1-.16,1.74,5.76,5.76,0,0,1-.75,1.64A5.65,5.65,0,0,1,87.36,111l-.3,0a6.59,6.59,0,0,1-.75-3.71,6.38,6.38,0,0,1,.51-1.68,5.84,5.84,0,0,1,.93-1.6,2.86,2.86,0,0,0,.66-1.65,13.34,13.34,0,0,0-.42-1.86,3.08,3.08,0,0,1,.42-1.69,4.15,4.15,0,0,1,1.33-1.52Z"/><path class="cls-1" d="M102.7,103.35a4.6,4.6,0,0,1,.64,2,3.4,3.4,0,0,1-.28,1.84,15.31,15.31,0,0,0-1.11,1.69,3.2,3.2,0,0,0,0,1.89,6.32,6.32,0,0,1,.22,2,7.32,7.32,0,0,1-.17,1.87,7.71,7.71,0,0,1-.77,1.75A7,7,0,0,1,99.84,118l-.3-.06a6.47,6.47,0,0,1-.65-2,7.23,7.23,0,0,1-.06-1.91,7.1,7.1,0,0,1,.54-1.79,6.19,6.19,0,0,1,.94-1.72,3.16,3.16,0,0,0,.69-1.77,14.28,14.28,0,0,0-.39-2,3.52,3.52,0,0,1,.43-1.82,4.64,4.64,0,0,1,1.36-1.64Z"/><path class="cls-1" d="M116.09,105.75a4.93,4.93,0,0,1,.61,2.17,4,4,0,0,1-.31,2,16.36,16.36,0,0,0-1.14,1.84,3.8,3.8,0,0,0-.06,2,7.29,7.29,0,0,1,.2,2.1,8.5,8.5,0,0,1-.21,2,7.84,7.84,0,0,1-.8,1.9,7.1,7.1,0,0,1-1.4,1.79l-.3-.06a7.07,7.07,0,0,1-.62-2.18,8,8,0,0,1,0-2.07,7.85,7.85,0,0,1,.57-1.94,7.1,7.1,0,0,1,1-1.87,3.67,3.67,0,0,0,.72-1.92,16.34,16.34,0,0,0-.36-2.13,4,4,0,0,1,.47-2,5,5,0,0,1,1.39-1.78Z"/><path class="cls-1" d="M130.48,103a5.82,5.82,0,0,1,.57,2.37,4.91,4.91,0,0,1-.35,2.19,20.1,20.1,0,0,0-1.18,2,4.49,4.49,0,0,0-.1,2.25,8.14,8.14,0,0,1,.16,2.29,10.11,10.11,0,0,1-.24,2.21,9.91,9.91,0,0,1-.84,2.1,8.37,8.37,0,0,1-1.44,2l-.3-.06a8,8,0,0,1-.58-2.37,9.48,9.48,0,0,1,0-2.26,11,11,0,0,1,.61-2.15,8.93,8.93,0,0,1,1-2.06,4.43,4.43,0,0,0,.76-2.11,21.68,21.68,0,0,0-.32-2.33,4.82,4.82,0,0,1,.5-2.16,5.88,5.88,0,0,1,1.43-2Z"/><path class="cls-1" d="M146.63,91.34a7.09,7.09,0,0,1,.51,2.67,6.4,6.4,0,0,1-.4,2.5,21.82,21.82,0,0,0-1.24,2.33,5.74,5.74,0,0,0-.16,2.55,10.85,10.85,0,0,1,.1,2.6,13,13,0,0,1-.3,2.51,12.67,12.67,0,0,1-.9,2.4,10.24,10.24,0,0,1-1.5,2.29l-.3-.06a9.83,9.83,0,0,1-.52-2.68,12.11,12.11,0,0,1,.07-2.56,12.54,12.54,0,0,1,.67-2.45,10.63,10.63,0,0,1,1.07-2.37,5.67,5.67,0,0,0,.82-2.41,23.68,23.68,0,0,0-.27-2.63,6.28,6.28,0,0,1,.57-2.47,7.12,7.12,0,0,1,1.48-2.28Z"/><path class="cls-1" d="M23.58,116.57a21.24,21.24,0,0,1-2.25,10,11.23,11.23,0,0,1-3.74,4A9.53,9.53,0,0,1,12.15,132,9.81,9.81,0,0,1,7,130.1a14.38,14.38,0,0,1-3.61-3.82,20.66,20.66,0,0,1-3.3-9.71A16,16,0,0,1,2.6,106.32a13.13,13.13,0,0,1,4-3.92,10.54,10.54,0,0,1,5.55-1.59,10.28,10.28,0,0,1,5.5,1.7,11.3,11.3,0,0,1,3.71,4A21,21,0,0,1,23.58,116.57Zm-.3,0a13.18,13.18,0,0,0-3.54-8.85,10.47,10.47,0,0,0-7.59-3.7,9.44,9.44,0,0,0-7.24,4,17.11,17.11,0,0,0-3.21,8.6,13.4,13.4,0,0,0,2.45,9.15,9.86,9.86,0,0,0,3.66,3,9,9,0,0,0,4.34.8,11.66,11.66,0,0,0,7.62-4A13.07,13.07,0,0,0,23.28,116.57Z"/><path class="cls-1" d="M47.23,107.65a21.19,21.19,0,0,1-2.25,10,11,11,0,0,1-3.74,4,9.5,9.5,0,0,1-5.43,1.44,9.86,9.86,0,0,1-5.18-1.87A14.57,14.57,0,0,1,27,117.36a20.67,20.67,0,0,1-3.31-9.71A16,16,0,0,1,26.26,97.4a13.1,13.1,0,0,1,4-3.92,10.67,10.67,0,0,1,5.56-1.59,10.33,10.33,0,0,1,5.49,1.7A11.24,11.24,0,0,1,45,97.65,21,21,0,0,1,47.23,107.65Zm-.3,0a13.09,13.09,0,0,0-3.54-8.85,10.44,10.44,0,0,0-7.58-3.7,9.43,9.43,0,0,0-7.24,4,17.12,17.12,0,0,0-3.22,8.6,13.34,13.34,0,0,0,2.46,9.15,9.73,9.73,0,0,0,3.65,3,9,9,0,0,0,4.35.8,11.65,11.65,0,0,0,7.61-4A13.06,13.06,0,0,0,46.93,107.65Z"/><path class="cls-1" d="M70.89,109.2a21.24,21.24,0,0,1-2.25,10,11.14,11.14,0,0,1-3.74,4,9.53,9.53,0,0,1-5.44,1.44,9.81,9.81,0,0,1-5.18-1.88,14.38,14.38,0,0,1-3.61-3.82,20.7,20.7,0,0,1-3.3-9.71A16,16,0,0,1,49.91,99a13,13,0,0,1,4-3.92,10.54,10.54,0,0,1,5.55-1.59A10.36,10.36,0,0,1,65,95.13a11.41,11.41,0,0,1,3.71,4.06A21,21,0,0,1,70.89,109.2Zm-.3,0a13.18,13.18,0,0,0-3.54-8.85,10.52,10.52,0,0,0-7.59-3.71,9.5,9.5,0,0,0-7.24,4A17.18,17.18,0,0,0,49,109.2a13.41,13.41,0,0,0,2.45,9.15,9.81,9.81,0,0,0,3.66,3,9,9,0,0,0,4.34.81,11.66,11.66,0,0,0,7.62-4A13.07,13.07,0,0,0,70.59,109.2Z"/><path class="cls-1" d="M92.35,121.56a24.2,24.2,0,0,1-.6,5.39,13.08,13.08,0,0,1-2.36,5.15,9.15,9.15,0,0,1-5,3.23,9.26,9.26,0,0,1-3.06.12,8.73,8.73,0,0,1-2.84-.95l-.18-.09h0c-.89-.74-1.78-1.48-2.69-2.21l-.1-.07a18.48,18.48,0,0,1-4.41-11.23A13.67,13.67,0,0,1,76,109.4a9.37,9.37,0,0,1,12.64.61,12.25,12.25,0,0,1,3,5.58A23.5,23.5,0,0,1,92.35,121.56Zm-.3,0A11.41,11.41,0,0,0,90.57,116a12.44,12.44,0,0,0-3.67-4,12.11,12.11,0,0,0-2.23-1.15,7.31,7.31,0,0,0-4.68-.09,10.53,10.53,0,0,0-1.13.44,8.94,8.94,0,0,0-1,.64,10.7,10.7,0,0,0-3.33,3.91A15.92,15.92,0,0,0,72.84,121a12.43,12.43,0,0,0,.42,5.61,10,10,0,0,0,3.09,4.67l-.1-.08c1,.57,2.08,1.13,3.13,1.68l-.18-.1a8.43,8.43,0,0,0,4.54,0,11.36,11.36,0,0,0,4-2.2,13,13,0,0,0,3.12-3.9A11.09,11.09,0,0,0,92.05,121.56Z"/><path class="cls-1" d="M116.09,135.72a21.18,21.18,0,0,1-2.25,10,11.12,11.12,0,0,1-3.74,4,9.42,9.42,0,0,1-5.43,1.44,9.92,9.92,0,0,1-5.19-1.87,14.38,14.38,0,0,1-3.6-3.83,20.67,20.67,0,0,1-3.31-9.7,16,16,0,0,1,2.55-10.26,13.21,13.21,0,0,1,4-3.92,10.57,10.57,0,0,1,5.56-1.58,10.24,10.24,0,0,1,5.49,1.69,11.24,11.24,0,0,1,3.71,4.06A21,21,0,0,1,116.09,135.72Zm-.3,0a13.05,13.05,0,0,0-3.54-8.85,10.45,10.45,0,0,0-7.58-3.71,9.43,9.43,0,0,0-7.24,4,17.12,17.12,0,0,0-3.22,8.61,13.33,13.33,0,0,0,2.46,9.14,9.73,9.73,0,0,0,3.65,3,9,9,0,0,0,4.35.8,11.58,11.58,0,0,0,7.61-4A13.06,13.06,0,0,0,115.79,135.72Z"/><path class="cls-1" d="M141.86,134.65a21.25,21.25,0,0,1-2.26,10,11.12,11.12,0,0,1-3.73,4,9.55,9.55,0,0,1-5.44,1.44,9.78,9.78,0,0,1-5.18-1.88,14.38,14.38,0,0,1-3.61-3.82,20.71,20.71,0,0,1-3.31-9.71,16.06,16.06,0,0,1,2.55-10.25,13.1,13.1,0,0,1,4-3.92,10.6,10.6,0,0,1,5.56-1.59,10.32,10.32,0,0,1,5.49,1.69,11.44,11.44,0,0,1,3.72,4.06A21.29,21.29,0,0,1,141.86,134.65Zm-.3,0A13.15,13.15,0,0,0,138,125.8a10.49,10.49,0,0,0-7.58-3.71,9.49,9.49,0,0,0-7.24,4,17.19,17.19,0,0,0-3.22,8.61,13.37,13.37,0,0,0,2.46,9.15,9.7,9.7,0,0,0,3.65,2.95,9,9,0,0,0,4.35.81,11.66,11.66,0,0,0,7.62-4A13.11,13.11,0,0,0,141.56,134.65Z"/><path class="cls-1" d="M127.64,42.43a22.7,22.7,0,0,1-2.49,10.51,15.3,15.3,0,0,1-3.5,4.42A11.83,11.83,0,0,1,116.43,60a11.12,11.12,0,0,1-5.94-.42,12.45,12.45,0,0,1-4.92-3.21A18.11,18.11,0,0,1,101,46.19a21.54,21.54,0,0,1-.06-5.5c.13-.91.33-1.79.49-2.69l.64-2.62c.91-3.49,2-6.93,3-10.35A194.93,194.93,0,0,1,113,5l1.33-3,1.5,3c.74,1.48,1.41,3,2.09,4.47s1.33,3,2,4.52c1.26,3,2.47,6.09,3.48,9.23s1.86,6.33,2.64,9.53A54.31,54.31,0,0,1,127.64,42.43Zm-.3,0a20.67,20.67,0,0,0-.84-4.78A48.32,48.32,0,0,0,124.93,33c-1.22-3-2.61-6-4-8.93s-2.67-5.93-4-8.9l-4-8.91h2.83c-3.11,6.39-6,12.9-9,19.39a85.76,85.76,0,0,0-3.83,10l-.68,2.57c-.18.86-.34,1.73-.45,2.6a16.09,16.09,0,0,0,.35,5.17,16.46,16.46,0,0,0,5,8.63,12.08,12.08,0,0,0,4.1,2.42,10.38,10.38,0,0,0,4.63.43,12.5,12.5,0,0,0,8.17-5.13A16.65,16.65,0,0,0,127.34,42.43Z"/><path class="cls-1" d="M122.16,38.18A3.16,3.16,0,0,1,123,40a3,3,0,0,1,0,.95,1.78,1.78,0,0,1-.32.9,3.68,3.68,0,0,1-.69.74,4.8,4.8,0,0,0-.67.69,3.26,3.26,0,0,0-.4.79c-.1.29-.15.61-.23.93a3.66,3.66,0,0,1-.8,1.83,4.94,4.94,0,0,1-.67.77,2.93,2.93,0,0,1-.84.6,3.76,3.76,0,0,1-4-.32v-.3c1.09-1,1.71-1.59,2.41-2.14a5.21,5.21,0,0,1,.56-.34,5.28,5.28,0,0,0,.62-.33c.22-.11.41-.25.65-.37s.51-.21.76-.35a1.83,1.83,0,0,0,1.09-1.19,4.84,4.84,0,0,0-.15-1.73,2.9,2.9,0,0,1,.4-1.46,4.51,4.51,0,0,1,.45-.73,4.57,4.57,0,0,1,.68-.79Z"/><path class="cls-1" d="M43.46,26.24a17.6,17.6,0,0,1-.34,3.3,12.91,12.91,0,0,1-1,3.24A9.55,9.55,0,0,1,40,35.67a7.39,7.39,0,0,1-3.34,1.77,7,7,0,0,1-3.88-.24,8.06,8.06,0,0,1-3.16-2.12,11.34,11.34,0,0,1-2.7-6.51,14,14,0,0,1,0-3.42c.08-.57.2-1.11.29-1.66l.39-1.62c.53-2.14,1.11-4.27,1.71-6.4a95.46,95.46,0,0,1,4.58-12.4L35.2,0l1.52,3.07c.9,1.82,1.73,3.64,2.49,5.51a56.8,56.8,0,0,1,2,5.71c.56,1.95,1,3.95,1.36,5.94A43.53,43.53,0,0,1,43.46,26.24Zm-.3,0a16.67,16.67,0,0,0-1.61-5.69c-.84-1.81-1.8-3.56-2.69-5.34s-1.73-3.58-2.56-5.38S34.68,6.2,33.89,4.41h2.83C34.78,8.27,33,12.23,31,16.12a44.25,44.25,0,0,0-2.49,6l-.42,1.56c-.12.52-.21,1-.28,1.57a9,9,0,0,0,.28,3.09,9.65,9.65,0,0,0,3.16,5,6.55,6.55,0,0,0,4.92,1.59,7.46,7.46,0,0,0,4.9-2.76A9.26,9.26,0,0,0,43.16,26.24Z"/><path class="cls-1" d="M40.11,23.64A2,2,0,0,1,41,24.83a1.69,1.69,0,0,1,.06.63.85.85,0,0,1-.23.57c-.31.35-.9.53-1.14.82A1.7,1.7,0,0,0,39.44,28a2.12,2.12,0,0,1-.37,1.33,2.34,2.34,0,0,1-1,1,2.29,2.29,0,0,1-2.78-.68v-.3a18.54,18.54,0,0,1,1.16-1.79,1.9,1.9,0,0,1,.66-.27,3.49,3.49,0,0,1,.42-.13c.16,0,.38,0,.56-.09.41-.08.72-.29.76-.63s-.28-.79-.39-1.11.07-.55.26-.82a2.33,2.33,0,0,1,.42-.4,3,3,0,0,1,.66-.46Z"/></g></g></svg>