<svg xmlns="http://www.w3.org/2000/svg" viewBox="0 0 125.95 152.79"><defs><style>.cls-1{fill:#fff;}.cls-2{fill:none;stroke:#fff;stroke-miterlimit:10;}</style></defs><g id="Layer_2" data-name="Layer 2"><g id="Layer_1-2" data-name="Layer 1"><path class="cls-1" d="M64.65,151.71l-1.57,0h-.16v-.17l0-9.37-.13-9.38L62.3,114.1c-.34-12.5-.59-25-.56-37.49s.28-25,.51-37.5.43-25,.35-37.5V1.12h.49A54.8,54.8,0,0,1,88.9,7.74a64.28,64.28,0,0,1,20.32,17.52,78.31,78.31,0,0,1,12.4,23.92A91.87,91.87,0,0,1,126,75.8a96.69,96.69,0,0,1-.86,13.51,90.37,90.37,0,0,1-2.91,13.22,77.29,77.29,0,0,1-12,24.12,65.92,65.92,0,0,1-20,17.82A55.73,55.73,0,0,1,64.65,151.71Zm0-.3a50.07,50.07,0,0,0,25-7.82,63.28,63.28,0,0,0,18.59-18.32,83.39,83.39,0,0,0,11-23.61,92.35,92.35,0,0,0,3.53-25.82A90.9,90.9,0,0,0,118.89,50a80.46,80.46,0,0,0-4.83-12.15,74.54,74.54,0,0,0-6.74-11.21A63.88,63.88,0,0,0,88.16,9.06,51.7,51.7,0,0,0,76.09,3.91a54.36,54.36,0,0,0-13-1.82l.48-.48c-.08,12.5.08,25,.35,37.5s.53,25,.51,37.5-.22,25-.56,37.49l-.45,18.75-.13,9.38-.05,9.37-.15-.15Z"/><path class="cls-1" d="M108.24,76.61a140.7,140.7,0,0,1-2,23.87,97.64,97.64,0,0,1-6.87,23.07,69,69,0,0,1-5.87,10.64,53,53,0,0,1-8,9.27,37.24,37.24,0,0,1-10.31,6.76,29.31,29.31,0,0,1-12.11,2.44l-1.08,0,0-1c.23-12.5.58-25,.59-37.5s-.13-25-.35-37.49-.45-25-.56-37.5-.22-25-.22-37.5V0h1.6A30,30,0,0,1,75.33,2.69,39.1,39.1,0,0,1,85.62,9.62a53.61,53.61,0,0,1,8,9.34,71.37,71.37,0,0,1,5.83,10.68,98.83,98.83,0,0,1,6.85,23.09A139.68,139.68,0,0,1,108.24,76.61Zm-.3,0a107,107,0,0,0-2.63-23.69,94.12,94.12,0,0,0-8-22.31A63.72,63.72,0,0,0,83.58,11.87,36.22,36.22,0,0,0,74,5.6a27.76,27.76,0,0,0-11-2.4l1.6-1.59c0,12.5-.16,25-.23,37.5s-.29,25-.55,37.5-.41,25-.36,37.49.36,25,.59,37.5l-1-1a28.21,28.21,0,0,0,11.09-2.65,37.87,37.87,0,0,0,9.53-6.43,64.66,64.66,0,0,0,13.71-18.85,94.89,94.89,0,0,0,7.92-22.32A106.57,106.57,0,0,0,107.94,76.61Z"/><path class="cls-1" d="M85.88,76.61c0,6.86-.21,13.72-.6,20.59A194.88,194.88,0,0,1,83,117.73a94.51,94.51,0,0,1-5.42,20.07c-.34.8-.66,1.62-1.05,2.41s-.76,1.58-1.19,2.36a31.18,31.18,0,0,1-2.87,4.51A17.41,17.41,0,0,1,68.58,151a9.37,9.37,0,0,1-5.5,1.84l-1.21,0,0-1.16.4-18.75c.15-6.25.27-12.5.3-18.75.09-12.5-.1-25-.34-37.49s-.48-25-.58-37.5-.23-25-.21-37.5V0h1.6a9.81,9.81,0,0,1,5.69,2A17.72,17.72,0,0,1,72.7,6a32.93,32.93,0,0,1,2.84,4.56,47.28,47.28,0,0,1,2.21,4.81,96.93,96.93,0,0,1,5.33,20.11A197.73,197.73,0,0,1,85.31,56C85.69,62.88,85.91,69.74,85.88,76.61Zm-.3,0a187.33,187.33,0,0,0-1.15-20.52A182.46,182.46,0,0,0,81,35.88,118.76,118.76,0,0,0,75,16.5a40.14,40.14,0,0,0-4.79-8.63c-1.9-2.57-4.49-4.64-7.14-4.66l1.6-1.6c0,12.5-.12,25-.2,37.5s-.3,25-.58,37.5-.44,25-.34,37.49c0,6.25.14,12.5.29,18.75l.41,18.75-1.18-1.18c2.87-.11,5.45-2.32,7.32-4.94a41.13,41.13,0,0,0,4.75-8.71,123,123,0,0,0,5.94-19.43,187.78,187.78,0,0,0,3.36-20.22A182.43,182.43,0,0,0,85.58,76.61Z"/><path class="cls-1" d="M124.52,76.61a55.26,55.26,0,0,1-4.81,22.31A56.47,56.47,0,0,1,106,117.47,58.5,58.5,0,0,1,86,129.1a66,66,0,0,1-22.87,3.42l-.86,0,0-.82c.25-9.18.4-18.36.38-27.54q0-6.89-.1-13.77L62.26,76.6,62,62.83l-.2-13.77-.24-27.54V20h1.58a66.32,66.32,0,0,1,23,3.89,64.15,64.15,0,0,1,10.59,4.94,61.91,61.91,0,0,1,9.43,6.89,56.92,56.92,0,0,1,13.67,18.6A55,55,0,0,1,124.52,76.61Zm-.3,0a47.52,47.52,0,0,0-5.48-21.85,55.2,55.2,0,0,0-14.32-17.15c-1.46-1.16-3-2.29-4.51-3.31a52.63,52.63,0,0,0-4.74-2.94A64.4,64.4,0,0,0,85,26.81a71.56,71.56,0,0,0-10.8-2.76,70.12,70.12,0,0,0-11.11-1l1.56-1.57L64.4,49.06l-.2,13.77L63.9,76.6l-.26,13.77q-.09,6.88-.11,13.77c0,9.18.14,18.36.39,27.54l-.84-.84a67.67,67.67,0,0,0,11.19-1.2c1.85-.35,3.67-.79,5.47-1.3s3.59-1.06,5.34-1.7A67.11,67.11,0,0,0,95.23,122a48.27,48.27,0,0,0,4.74-3c1.56-1,3-2.17,4.5-3.33a56,56,0,0,0,14.29-17.2A47.16,47.16,0,0,0,124.22,76.61Z"/><path class="cls-1" d="M124.52,76.61a14.36,14.36,0,0,1-.77,4.49,18.87,18.87,0,0,1-2,4.09,30.11,30.11,0,0,1-6.32,6.63,55.15,55.15,0,0,1-16.21,8.55,80.86,80.86,0,0,1-17.89,3.83,142,142,0,0,1-18.2.65h-.55v-.53c.1-4.62.09-9.23.05-13.85s-.21-9.24-.33-13.86-.32-9.24-.4-13.86-.18-9.23-.22-13.85l0-1.43,1.46,0a122.84,122.84,0,0,1,18.27,1.08c3,.4,6,1,9,1.67a82.46,82.46,0,0,1,8.84,2.53,56.66,56.66,0,0,1,16.19,8.65A29.94,29.94,0,0,1,121.72,68a18.72,18.72,0,0,1,2,4.1A14.3,14.3,0,0,1,124.52,76.61Zm-.3,0a13.81,13.81,0,0,0-.82-4.37,15.92,15.92,0,0,0-2.16-3.89,25,25,0,0,0-6.6-5.92,64.14,64.14,0,0,0-16.3-7c-2.85-.84-5.73-1.58-8.64-2.2s-5.85-1.1-8.79-1.52a143.57,143.57,0,0,0-17.83-1.37l1.44-1.44c0,4.62-.11,9.24-.22,13.85S64,72,63.9,76.6s-.29,9.24-.33,13.86-.06,9.23,0,13.85l-.53-.53A122.94,122.94,0,0,0,81,102a148.6,148.6,0,0,0,17.4-4.1,65.86,65.86,0,0,0,16.28-7.09,25.24,25.24,0,0,0,6.6-5.93A15.45,15.45,0,0,0,123.41,81,13.9,13.9,0,0,0,124.22,76.61Z"/><path class="cls-2" d="M21.44,45.72A158,158,0,0,1,31.9,17.09a35.61,35.61,0,0,1,4-2.32,256.94,256.94,0,0,0-9.55,30.08,49.71,49.71,0,0,1,5.46-1.19C31,48.78,30.16,55,29.57,60.11c-1.71.1-4,.24-6.31.4a165.13,165.13,0,0,0-1.62,26.75,55.31,55.31,0,0,0,6,.25c.36,5.32.79,10.56,1.35,15.88-1.75-.2-4.09-.29-6.41-.62,1.7,10.29,3.48,20.42,7.37,30.16A18.16,18.16,0,0,1,26.53,131a98.78,98.78,0,0,1-8.61-28.81c-1.75-.29-3.58-.62-5.32-1a77.39,77.39,0,0,0,9.8,27,27.46,27.46,0,0,1-3.16-2.44,72.64,72.64,0,0,1-11-25.29c-1.77-.4-3.6-.85-4.86-1.17A65.55,65.55,0,0,1,.55,85.67l5.64.46A96.5,96.5,0,0,1,7.93,61.77c-2,.24-4.07.5-5.5.7A75.34,75.34,0,0,1,6.07,49.65c1.72-.38,3.65-1.06,5.57-1.56a110.91,110.91,0,0,1,12.84-25.9,38.71,38.71,0,0,1,3.76-3,131,131,0,0,0-12,27.58C18.3,46.35,19.33,46.13,21.44,45.72ZM12.68,61.24A114.78,114.78,0,0,0,11,86.65c1.62.11,3.78.24,5.57.34a139.05,139.05,0,0,1,1.65-26.08C15.94,61,14.84,61.1,12.68,61.24Z"/><path class="cls-2" d="M65,127.53c.07,6,0,12.13,0,17.88a68.35,68.35,0,0,1-11.32-1,59.64,59.64,0,0,1-10.56-2.67c-1.24-5-2.44-10.57-3.4-16,3,.37,4.52.49,7.65.63.17,0,.21-.58.14-1.19a433.18,433.18,0,0,1-1.6-80.54c-3.06,1.4-6,3-9.82,5,.27-5.49.79-11.27,1.49-16.53C45,25.33,52.4,11.52,58,8.38c0,0,.13.19.08,1a1035.85,1035.85,0,0,0-1.17,117.68C60.12,127.36,61.73,127.46,65,127.53Z"/><path class="cls-1" d="M63.23,1.61c.57,6.25.82,12.5,1,18.75s.26,12.5.09,18.75-.68,12.5-.77,18.75.06,12.5.34,18.75.52,12.5.6,18.75.21,12.5.18,18.75c-.14,12.5-.49,25-1.45,37.5h-.3c-1-12.5-1.31-25-1.45-37.5,0-6.25.06-12.5.18-18.75s.3-12.5.6-18.75.43-12.5.33-18.75-.57-12.5-.76-18.75-.08-12.5.09-18.75.44-12.5,1-18.75Z"/></g></g></svg>