<svg xmlns="http://www.w3.org/2000/svg" viewBox="0 0 102.95 152.7"><defs><style>.cls-1{fill:#fff;}</style></defs><g id="Layer_2" data-name="Layer 2"><g id="Layer_1-2" data-name="Layer 1"><path class="cls-1" d="M89.35,151.65c-20-.05-39.95.43-59.92.79-5,.09-10,.2-15,.25a17.27,17.27,0,0,1-4-.29,13,13,0,0,1-3.85-1.49,13.38,13.38,0,0,1-5.45-6.07,14.2,14.2,0,0,1-1.08-4C0,139.39,0,138.23,0,137v-7.49l.09-15L.51,84.54c.16-10,.3-20,.35-30s0-20,0-30l0-7.49,0-3.75A13.16,13.16,0,0,1,1.36,9.5,12.93,12.93,0,0,1,9.43,1.34,14.07,14.07,0,0,1,13.35.67q30-.42,59.92-.59l15-.07A17.52,17.52,0,0,1,92.3.32a13.74,13.74,0,0,1,3.91,1.54,13.59,13.59,0,0,1,5.54,6.19,14.35,14.35,0,0,1,1.11,4.08c.11,1.48.07,2.63.08,3.9V38.5c-.07,20-.16,39.94-.62,59.91l-.57,30-.11,7.49-.05,3.75a12.22,12.22,0,0,1-.67,3.74,12.26,12.26,0,0,1-7.85,7.71A13.15,13.15,0,0,1,89.35,151.65Zm0-.3a13.14,13.14,0,0,0,3.63-.6,11.76,11.76,0,0,0,3.26-1.69,11.41,11.41,0,0,0,2.6-2.59,11.19,11.19,0,0,0,1.67-3.26,12.32,12.32,0,0,0,.57-3.61l0-3.74-.11-7.49-.57-30c-.46-20-.55-39.94-.61-59.91V16c0-1.23,0-2.58,0-3.59a11.37,11.37,0,0,0-.81-3.13,10.58,10.58,0,0,0-4.25-4.82,10.38,10.38,0,0,0-3-1.23A14.54,14.54,0,0,0,88.24,3l-15-.07q-30-.14-59.92-.59a12.18,12.18,0,0,0-3.44.5A11.35,11.35,0,0,0,2,13.39l-.05,3.74,0,7.49c0,10-.1,20,0,30s.19,20,.35,30l.41,29.95.09,15V137c0,1.23,0,2.57,0,3.61a11.61,11.61,0,0,0,.84,3.21,10.77,10.77,0,0,0,4.34,4.93A10.52,10.52,0,0,0,11,150a14.07,14.07,0,0,0,3.45.31c5,0,10,.16,15,.25C49.4,150.91,69.37,151.39,89.35,151.35Z"/><path class="cls-1" d="M85,95.77a32.56,32.56,0,0,1-2.5,12.48,28.72,28.72,0,0,1-1.41,2.9c-.49,1-1.08,1.86-1.66,2.78a34.24,34.24,0,0,1-4.17,5,33.11,33.11,0,0,1-14.11,8.12c-1.07.24-2.13.55-3.22.7a35.14,35.14,0,0,1-6.55.51,36.54,36.54,0,0,1-27.91-14.44,34.34,34.34,0,0,1-3.31-5.52c-.22-.49-.48-1-.68-1.47l-.56-1.52a23.56,23.56,0,0,1-1-3.09,30.36,30.36,0,0,1-.88-6.45A29.4,29.4,0,0,1,19.5,83a31.69,31.69,0,0,1,7.66-10.69,35.4,35.4,0,0,1,11.2-7,36.07,36.07,0,0,1,13-2.39,36.53,36.53,0,0,1,12.95,2.5,32,32,0,0,1,11,7.16A32.6,32.6,0,0,1,85,95.77Zm-.3,0a26.89,26.89,0,0,0-2.94-12.15A30,30,0,0,0,73.94,74a35.81,35.81,0,0,0-22.59-7.92,34.13,34.13,0,0,0-22.3,8.24A31.06,31.06,0,0,0,21.66,84a29.19,29.19,0,0,0-3,11.82,28.23,28.23,0,0,0,9.74,22.09,31.74,31.74,0,0,0,5.08,3.63,34.86,34.86,0,0,0,17.84,4.27A37.35,37.35,0,0,0,74,117.53a33.49,33.49,0,0,0,4.37-4.38,30.42,30.42,0,0,0,3.43-5.23A27,27,0,0,0,84.68,95.77Z"/><path class="cls-1" d="M23.88,95.77a18.36,18.36,0,0,1-.5-2.68c0-.9,0-1.81.07-2.72s.34-1.79.57-2.67a15.12,15.12,0,0,1,1.09-2.51c.52-.76,1.05-1.5,1.63-2.19s1.2-1.35,1.77-2,1.1-1.37,1.66-2,1.07-1.42,1.66-2.09l.89-1a8,8,0,0,1,1-1,19.38,19.38,0,0,1,2.14-1.69,20.82,20.82,0,0,1,4.83-2.54,18.56,18.56,0,0,1,10.71-.48v.3a81.64,81.64,0,0,0-9.59,3.19c-.77.26-1.49.66-2.26.92a9.39,9.39,0,0,0-1.12.51l-1.11.53c-1.44.78-2.89,1.58-4.34,2.48a7.45,7.45,0,0,0-1,.74c-.34.26-.66.53-1,.82a12.75,12.75,0,0,0-1.64,1.94,13.82,13.82,0,0,0-1.11,2.29c-.29.8-.49,1.62-.79,2.39a17.18,17.18,0,0,1-.83,2.31c-.25.77-.51,1.55-.82,2.32s-.46,1.59-.76,2.39a17.62,17.62,0,0,1-.79,2.51Z"/><ellipse class="cls-1" cx="85.88" cy="16.13" rx="7.22" ry="6.74"/><ellipse class="cls-1" cx="69.62" cy="16.13" rx="4.84" ry="4.52"/><rect class="cls-1" x="11.44" y="9.39" width="22.78" height="11.26" rx="3.75"/><path class="cls-1" d="M19.2,104.32a48.13,48.13,0,0,0,8.58-1.52,9.89,9.89,0,0,0,3.48-1.74,4.71,4.71,0,0,0,1.65-2.92l.37-2.1,1.66,1.16c1.41,1,2.89,2,4.38,2.92a21.22,21.22,0,0,0,4.74,2.31,9.72,9.72,0,0,0,2.54.47,4.58,4.58,0,0,0,2.38-.45,2.74,2.74,0,0,0,1.34-1.74,7.31,7.31,0,0,0,.13-2.39l-.12-1.46,1.47.67c1.64.75,3.37,1.42,5.06,2.08A35.69,35.69,0,0,0,62,101.19a9.61,9.61,0,0,0,4.62.12,2,2,0,0,0,1.14-1,4.91,4.91,0,0,0,.4-2l.08-2.81L70.4,97c.74.5,1.55,1,2.34,1.47s1.6,1,2.42,1.39l.73.4,0,.67h0L74.67,99.8h0l.34,0,.16.09a41.78,41.78,0,0,0,8.52,3.8l0,.3a17.62,17.62,0,0,1-4.84-.53A32.94,32.94,0,0,1,74.18,102l.5.11h0l-1.09.08L73.5,101h0l.68,1.07c-.91-.36-1.82-.72-2.7-1.14s-1.74-.83-2.64-1.32l2.27-1.32a7.48,7.48,0,0,1-.53,3.46,4,4,0,0,1-.51.87,3.83,3.83,0,0,1-.69.76,3.65,3.65,0,0,1-.84.59,4.13,4.13,0,0,1-.89.4,8,8,0,0,1-3.39.35,17,17,0,0,1-3-.57,36.55,36.55,0,0,1-10.35-5l1.35-.79a9,9,0,0,1-.65,2.9,4.17,4.17,0,0,1-2.15,2.2,6.31,6.31,0,0,1-2.88.42,16.71,16.71,0,0,1-2.76-.43,44.09,44.09,0,0,1-5.28-1.62,30.17,30.17,0,0,1-5-2.36l2-.94c-.07.44-.16.89-.26,1.34a11.94,11.94,0,0,1-.56,1.27,6.91,6.91,0,0,1-1.81,2,10.73,10.73,0,0,1-4.58,1.9,20.2,20.2,0,0,1-4.64.27,24.28,24.28,0,0,1-4.5-.64Z"/><path class="cls-1" d="M84.83,95.77a29.5,29.5,0,0,1-3.71,14.29c-3.21-1.09-5.71-4.62-6.44-9.09h0a17.82,17.82,0,0,1-.21-2.67c0-6.68,3.93-12.09,8.77-12.09A29.19,29.19,0,0,1,84.83,95.77Z"/><path class="cls-1" d="M101.35,38.32c-4.17.57-8.33.82-12.5,1s-8.33.26-12.5.09-8.33-.68-12.5-.76-8.33.05-12.5.33-8.33.52-12.5.6-8.33.21-12.5.18c-8.33-.14-16.67-.49-25-1.45V38c8.33-1,16.67-1.31,25-1.45,4.17,0,8.33.06,12.5.18s8.33.3,12.5.6,8.33.44,12.5.33,8.33-.57,12.5-.76,8.33-.08,12.5.09,8.33.44,12.5,1Z"/></g></g></svg>